<svg xmlns="http://www.w3.org/2000/svg" width="600" height="450" viewBox="0 0 600 450">
  <rect width="100%" height="100%" fill="#fff"/>
  <line x1="100" y1="350" x2="500" y2="350" stroke="#1f2937" stroke-width="2"/>
  <line x1="500" y1="350" x2="300" y2="80" stroke="#1f2937" stroke-width="2"/>
  <line x1="300" y1="80" x2="100" y2="350" stroke="#1f2937" stroke-width="2"/>
  <line x1="100" y1="350" x2="358.3" y2="158.7" stroke="#dc2626" stroke-width="1.5" stroke-dasharray="6,3"/>
  <path d="M 351.9 163.4 L 356.6 169.9 L 363.0 165.1" fill="none" stroke="#2563eb" stroke-width="1.5"/>
  <text x="370.281665190434" y="148.6802480070859" font-size="11" fill="#64748b">s=8</text>
  <path d="M 348.6 165.8 L 355.8 175.5 L 365.4 168.3" fill="none" stroke="#2563eb" stroke-width="1.5"/>
  <text x="374.281665190434" y="144.6802480070859" font-size="11" fill="#64748b">s=12</text>
  <path d="M 343.8 169.4 L 354.5 183.9 L 369.0 173.1" fill="none" stroke="#2563eb" stroke-width="1.5"/>
  <text x="380.281665190434" y="138.6802480070859" font-size="11" fill="#64748b">s=18</text>
  <circle cx="100.0" cy="350.0" r="4" fill="#111"/>
  <text x="106" y="344" font-size="14" font-family="Georgia,serif">A</text>
  <circle cx="500.0" cy="350.0" r="4" fill="#111"/>
  <text x="506" y="344" font-size="14" font-family="Georgia,serif">B</text>
  <circle cx="300.0" cy="80.0" r="4" fill="#111"/>
  <text x="306" y="74" font-size="14" font-family="Georgia,serif">C</text>
  <circle cx="358.3" cy="158.7" r="4" fill="#111"/>
  <text x="364.281665190434" y="152.6802480070859" font-size="14" font-family="Georgia,serif">H</text>
</svg>